<svg width="300" height="250" xmlns="http://www.w3.org/2000/svg">
 <!-- Created with Method Draw - http://github.com/duopixel/Method-Draw/ -->
 <g>
  <title>background</title>
  <rect fill="#fff" id="canvas_background" height="252" width="302" y="-1" x="-1"/>
  <g display="none" overflow="visible" y="0" x="0" height="100%" width="100%" id="canvasGrid">
   <rect fill="url(#gridpattern)" stroke-width="0" y="0" x="0" height="100%" width="100%"/>
  </g>
 </g>
 <g>
  <title>Layer 1</title>
  <path id="svg_4" d="m123.23216,214.724338c-25.876532,-9.723329 -44.423972,-40.619016 -40.208884,-66.978631c2.657908,-16.621739 58.733067,-117.527281 63.630204,-114.500682c1.59836,0.987837 15.82177,24.513153 31.607577,52.27849c25.287202,44.47714 28.70145,52.770751 28.70145,69.719219c0,34.353844 -27.493954,62.493538 -60.506143,61.92725c-9.633422,-0.165274 -20.08432,-1.265811 -23.224204,-2.44564l0,-0.000006zm25.925361,-17.27872c0.856525,-4.447602 -1.144273,-6.616679 -6.103413,-6.616679c-11.30239,0 -26.98064,-14.314796 -30.483401,-27.832397c-3.736493,-14.419612 -13.643602,-16.134533 -15.106936,-2.615004c-2.819314,26.047298 46.944045,61.727269 51.693745,37.06408l0.000006,0z" fill-opacity="null" stroke-opacity="null" stroke-width="1.5" stroke="#000" fill="#fff"/>
 </g>
</svg>